# AST/ASF file generated using VICON BodyLanguage
# -----------------------------------------------
:version 1.10
:name VICON
:units
  mass 1.0
  length 0.45
  angle deg
:documentation
   .ast/.asf automatically generated from VICON data using
   VICON BodyBuilder and BodyLanguage model FoxedUp or BRILLIANT.MOD
:root
   order TX TY TZ RX RY RZ
   axis XYZ
   position 0 0 0  
   orientation 0 0 0 
:bonedata
  begin
     id 1 
     name lhipjoint
     direction 0.645893 -0.654526 0.392961 
     length 2.38111 
     axis 0 0 0  XYZ
  end
  begin
     id 2 
     name lfemur
     direction 0.34202 -0.939693 0  
     length 6.6822  
     axis 0 0 20  XYZ
    dof rx ry rz
    limits (-160.0 20.0)
           (-70.0 70.0)
           (-60.0 70.0)
  end
  begin
     id 3 
     name ltibia
     direction 0.34202 -0.939693 0   
     length 6.93904   
     axis 0 0 20   XYZ
    dof rx
    limits (-10.0 170.0)
  end
  begin
     id 4 
     name lfoot
     direction 0.0694967 -0.190941 0.979138   
     length 2.13616   
     axis -90 7.62852e-016 20   XYZ
    dof rx rz
    limits (-45.0 90.0)
           (-70.0 20.0)
  end
  begin
     id 5 
     name ltoes
     direction 1.535e-011 -4.2202e-011 1   
     length 1.07536   
     axis -90 7.62852e-016 20   XYZ
    dof rx
    limits (-90.0 20.0)
  end
  begin
     id 6 
     name rhipjoint
     direction -0.700219 -0.612087 0.367481   
     length 2.54621  
     axis 0 0 0  XYZ 
  end
  begin
     id 7 
     name rfemur
     direction -0.34202 -0.939693 0   
     length 6.55353   
     axis 0 0 -20   XYZ
    dof rx ry rz
    limits (-160.0 20.0)
           (-70.0 70.0)
           (-70.0 60.0)
  end
  begin
     id 8 
     name rtibia
     direction -0.34202 -0.939693 0   
     length 6.8736   
     axis 0 0 -20   XYZ
    dof rx
    limits (-10.0 170.0)
 end
 begin
     id 9 
     name rfoot
     direction -0.0679995 -0.186827 0.980037   
     length 2.1218  
     axis -90 -7.62852e-016 -20   XYZ
    dof rx rz
    limits (-45.0 90.0)
           (-20.0 70.0)
  end
  begin
     id 10 
     name rtoes
     direction -1.53589e-011 -4.21772e-011 1   
     length 1.06864   
     axis -90 -7.62852e-016 -20   XYZ
    dof rx
    limits (-90.0 20.0)
  end
  begin
     id 11 
     name lowerback
     direction -0.0416607 0.996347 -0.0745409   
     length 2.12205   
     axis 0 0 0   XYZ
    dof rx ry rz
    limits (-20.0 45.0)
           (-30.0 30.0)
           (-30.0 30.0)
  end
  begin
     id 12 
     name upperback
     direction -0.000153993 0.999276 -0.0380568   
     length 2.12759   
     axis 0 0 0   XYZ
    dof rx ry rz
    limits (-20.0 45.0)
           (-30.0 30.0)
           (-30.0 30.0)
  end
  begin
     id 13 
     name thorax
     direction 0.0187671 0.999821 -0.00241421   
     length 2.13704   
     axis 0 0 0   XYZ
    dof rx ry rz
    limits (-20.0 45.0)
           (-30.0 30.0)
           (-30.0 30.0)
  end
  begin
     id 14 
     name lowerneck
     direction 0.0268157 0.964865 0.261374   
     length 1.65253   
     axis 0 0 0   XYZ
    dof rx ry rz
    limits (-20.0 45.0)
           (-30.0 30.0)
           (-30.0 30.0)
  end
  begin
     id 15 
     name upperneck
     direction 0.00263774 0.939908 -0.341418   
     length 1.72375   
     axis 0 0 0   XYZ
    dof rx ry rz
    limits (-20.0 45.0)
           (-30.0 30.0)
           (-30.0 30.0)
  end
  begin
     id 16
     name head
     direction -0.00526001 0.989001 -0.147818  
     length 1.74878  
     axis 0 0 0   XYZ
    dof rx ry rz
    limits (-20.0 45.0)
           (-30.0 30.0)
           (-30.0 30.0)
  end
  begin
     id 17 
     name lclavicle
     direction 0.881214 0.461162 -0.103884  
     length 3.25108  
     axis 0 0 0   XYZ
    dof ry rz
    limits (-20.0 10.0)
           (0.0 20.0)
  end
  begin
     id 18 
     name lhumerus
     direction 1 -4.4899e-011 3.38092e-027   
     length 4.87408   
     axis 180 -30 -90   XYZ
    dof rx ry rz
    limits (-60.0 90.0)
           (-90.0 90.0)
           (-90.0 90.0)
  end
  begin
     id 19
     name lradius
     direction 1 -4.48931e-011 9.96288e-027   
     length 2.76729   
     axis 180 -30 -90   XYZ
    dof rx
    limits (-10.0 170.0)
  end
  begin
     id 20
     name lwrist
     direction 1 -4.4896e-011 1.50617e-026   
     length 1.38364   
     axis -9.31234e-015 90 90   XYZ
    dof ry
    limits (-180.0 0.0)
 end
  begin
     id 21 
     name lhand
     direction 1 -4.49038e-011 3.01286e-026   
     length 0.98922   
     axis -1.92217e-014 90 90   XYZ
    dof rx rz
    limits (-90.0 90.0)
           (-45.0 45.0)
  end
  begin
     id 22 
     name lfingers
     direction 1 -4.49051e-011 6.02588e-026   
     length 0.797535   
     axis -3.84436e-014 90 90   XYZ
    dof rx
    limits (0.0 90.0)
  end
  begin
     id 23
     name lthumb
     direction 0.707107 -6.34901e-011 0.707107   
     length 1.14511   
     axis -90 45 2.19363e-014   XYZ
    dof rx rz
    limits (-45.0 45.0)
           (-45.0 45.0)
  end
  begin
     id 24 
     name rclavicle
     direction -0.893894 0.441652 -0.0767889   
     length 3.29361  
     axis 0 0 0   XYZ 
    dof ry rz
    limits (-10.0 20.0)
           (-20.0 0.0)
  end
  begin
     id 25 
     name rhumerus
     direction -1 -4.48945e-011 8.0491e-028  
     length 4.71404   
     axis 180 30 90   XYZ
    dof rx ry rz
    limits (-90.0 60.0)
           (-90.0 90.0)
           (-90.0 90.0)
  end
  begin
     id 26 
     name rradius
     direction -1 -4.48986e-011 9.27795e-027   
     length 2.83468   
     axis 180 30 90   XYZ
    dof rx
    limits (-10.0 170.0)
  end
  begin
     id 27 
     name rwrist
     direction -1 -4.49029e-011 1.5064e-026   
     length 1.41734   
     axis -9.31234e-015 -90 -90   XYZ
    dof ry
    limits (-180.0 0.0)
  end
  begin
     id 28
     name rhand
     direction -1 -4.48857e-011 3.01165e-026   
     length 0.868195   
     axis -1.92217e-014 -90 -90   XYZ
    dof rx rz
    limits (-90.0 90.0)
           (-45.0 45.0)
  end
  begin
     id 29
     name rfingers
     direction -1 -4.49048e-011 6.02585e-026   
     length 0.699961   
     axis -3.84436e-014 -90 -90   XYZ
    dof rx
    limits (0.0 90.0)
  end
  begin
     id 30
     name rthumb
     direction -0.707107 -6.34854e-011 0.707107   
     length 1.00501   
     axis -90 -45 -2.19363e-014   XYZ
    dof rx rz
    limits (-45.0 45.0)
           (-45.0 45.0)
  end
:hierarchy
  begin
    root lhipjoint rhipjoint lowerback
    lhipjoint lfemur
    lfemur ltibia
    ltibia lfoot
    lfoot ltoes
    rhipjoint rfemur
    rfemur rtibia
    rtibia rfoot
    rfoot rtoes
    lowerback upperback
    upperback thorax
    thorax lowerneck lclavicle rclavicle
    lowerneck upperneck
    upperneck head
    lclavicle lhumerus
    lhumerus lradius
    lradius lwrist
    lwrist lhand lthumb
    lhand lfingers
    rclavicle rhumerus
    rhumerus rradius
    rradius rwrist
    rwrist rhand rthumb
    rhand rfingers
  end

#!OML:ASF H:\ManfredObstacles\Project 1\Capture day 2\Session 1\male.ASF
:FULLY-SPECIFIED
:DEGREES
148
root 2.49381 13.0158 -8.19099 -173.273 -16.1348 178.753
lowerback 13.0487 0.122595 -2.68059
upperback 4.09463 -0.717 -2.18459
thorax -3.0163 -0.540616 -0.64632
lowerneck -35.8618 -3.83949 -3.67472
upperneck 38.8855 -8.4274 5.08817
head 23.5961 -3.33295 0.707326
rclavicle -3.55825e-014 4.53229e-014
rhumerus -15.2209 16.8519 -80.8763
rradius 77.2711
rwrist 9.94777
rhand -10.618 -6.33067
rfingers 7.12502
rthumb 15.3885 -35.738
lclavicle -3.55825e-014 4.53229e-014
lhumerus -33.0118 -39.6012 91.9447
lradius 80.6738
lwrist -25.7094
lhand -20.6257 5.92261
lfingers 7.12502
lthumb 5.73578 35.825
rfemur -49.5217 8.90344 20.023
rtibia 93.508
rfoot -15.7741 -16.417
rtoes -34.0792
lfemur -59.7201 -10.4251 -19.5955
ltibia 92.9241
lfoot -2.90128 24.961
ltoes -9.20238
149
root 2.44908 12.985 -8.38843 -173.395 -15.7188 178.592
lowerback 13.0355 0.28071 -2.70143
upperback 4.1149 -0.520957 -2.27411
thorax -2.99007 -0.44704 -0.758139
lowerneck -35.8135 -3.87867 -3.76822
upperneck 38.8943 -8.4139 5.05762
head 23.5891 -3.34959 0.712402
rclavicle -2.92213e-014 -1.51076e-014
rhumerus -15.275 16.4628 -80.4868
rradius 77.057
rwrist 9.72839
rhand -10.2039 -6.55395
rfingers 7.12502
rthumb 15.7873 -35.9302
lclavicle -2.92213e-014 -1.51076e-014
lhumerus -31.9853 -39.3212 92.1848
lradius 80.1494
lwrist -25.4322
lhand -20.4717 6.00259
lfingers 7.12502
lthumb 5.88439 35.9009
rfemur -49.441 8.40679 20.0818
rtibia 94.6668
rfoot -14.9725 -15.0875
rtoes -34.6463
lfemur -58.5354 -10.1291 -20.1735
ltibia 91.3685
lfoot -2.85044 23.8594
ltoes -10.133
150
root 2.40142 13.0025 -8.58968 -173.563 -15.3077 178.449
lowerback 12.9765 0.416495 -2.7099
upperback 4.1378 -0.34843 -2.34662
thorax -2.93551 -0.364729 -0.855523
lowerneck -35.7501 -3.88453 -3.8358
upperneck 38.9586 -8.37507 5.00091
head 23.6174 -3.36101 0.705213
rclavicle 6.16232e-015 -4.53229e-014
rhumerus -15.5598 16.0738 -80.1612
rradius 76.7868
rwrist 9.76548
rhand -9.9045 -6.63186
rfingers 7.12502
rthumb 16.0756 -35.985
lclavicle 6.16232e-015 -4.53229e-014
lhumerus -31.1253 -39.009 92.505
lradius 79.7156
lwrist -25.1107
lhand -20.331 6.20796
lfingers 7.12502
lthumb 6.02025 36.1024
rfemur -49.048 7.77448 20.076
rtibia 95.4246
rfoot -14.0141 -13.4363
rtoes -35.1474
lfemur -56.7673 -9.62152 -20.8087
ltibia 89.7916
lfoot -2.95617 23.8301
ltoes -11.1381
151
root 2.35175 13.0284 -8.79423 -173.736 -14.9248 178.315
lowerback 12.8456 0.518178 -2.72543
upperback 4.15552 -0.214916 -2.40205
thorax -2.84668 -0.300713 -0.924786
lowerneck -35.6693 -3.84974 -3.86023
upperneck 39.0595 -8.30725 4.92432
head 23.663 -3.36166 0.687302
rclavicle -1.61016e-014 3.18055e-014
rhumerus -16.0345 15.7221 -79.8874
rradius 76.4611
rwrist 10.0277
rhand -9.69829 -6.57579
rfingers 7.12502
rthumb 16.2742 -35.9128
lclavicle -1.61016e-014 3.18055e-014
lhumerus -30.4226 -38.6681 92.8842
lradius 79.4033
lwrist -24.7737
lhand -20.1988 6.48341
lfingers 7.12502
lthumb 6.14787 36.3742
rfemur -48.6078 7.04018 19.9878
rtibia 96.0647
rfoot -12.9437 -11.5251
rtoes -35.5235
lfemur -54.8071 -8.97725 -21.4289
ltibia 88.4908
lfoot -3.25434 24.8959
ltoes -12.1748
152
root 2.30048 13.0927 -9.00306 -173.909 -14.6173 178.159
lowerback 12.6758 0.567487 -2.76759
upperback 4.16203 -0.149355 -2.44808
thorax -2.7479 -0.269325 -0.958543
lowerneck -35.5678 -3.77961 -3.86946
upperneck 39.2028 -8.22123 4.85858
head 23.738 -3.35658 0.677212
rclavicle -4.87022e-014 4.13472e-014
rhumerus -16.6826 15.4299 -79.6693
rradius 76.0863
rwrist 10.4976
rhand -9.55663 -6.42491
rfingers 7.12502
rthumb 16.4106 -35.7507
lclavicle -4.87022e-014 4.13472e-014
lhumerus -29.8767 -38.2832 93.3101
lradius 79.2231
lwrist -24.5068
lhand -20.0846 6.76541
lfingers 7.12502
lthumb 6.25813 36.653
rfemur -47.9373 6.20067 19.769
rtibia 96.3637
rfoot -11.7115 -9.33149
rtoes -35.7491
lfemur -52.5193 -8.34326 -21.9915
ltibia 87.1815
lfoot -3.65954 26.5946
ltoes -13.2995
153
root 2.24951 13.1253 -9.21312 -174.031 -14.3739 177.977
lowerback 12.4351 0.566513 -2.85632
upperback 4.15045 -0.149001 -2.48884
thorax -2.62917 -0.268908 -0.950652
lowerneck -35.5012 -3.67613 -3.83963
upperneck 39.3639 -8.11677 4.79918
head 23.838 -3.33828 0.668114
rclavicle -8.94531e-015 6.36111e-015
rhumerus -17.4517 15.2001 -79.5108
rradius 75.6558
rwrist 11.1207
rhand -9.45852 -6.20805
rfingers 7.12502
rthumb 16.505 -35.526
lclavicle -8.94531e-015 6.36111e-015
lhumerus -29.4488 -37.8634 93.7518
lradius 79.1758
lwrist -24.2772
lhand -19.9606 7.00214
lfingers 7.12502
lthumb 6.37788 36.8861
rfemur -47.5477 5.33909 19.4213
rtibia 96.8655
rfoot -10.3775 -6.93364
rtoes -35.681
lfemur -50.4951 -7.82252 -22.4494
ltibia 86.2574
lfoot -4.13749 28.3222
ltoes -14.5425
154
root 2.19992 13.1593 -9.42472 -174.108 -14.2341 177.764
lowerback 12.1653 0.509677 -2.98697
upperback 4.1188 -0.223503 -2.53051
thorax -2.51491 -0.30452 -0.909553
lowerneck -35.4648 -3.56121 -3.80773
upperneck 39.531 -8.02113 4.78212
head 23.962 -3.31712 0.678718
rclavicle -4.41302e-014 2.94201e-014
rhumerus -18.3578 14.9828 -79.4292
rradius 75.2103
rwrist 11.9061
rhand -9.3839 -5.95378
rfingers 7.12502
rthumb 16.5769 -35.2658
lclavicle -4.41302e-014 2.94201e-014
lhumerus -29.1072 -37.4451 94.1862
lradius 79.2369
lwrist -24.105
lhand -19.854 7.13937
lfingers 7.12502
lthumb 6.48078 37.0202
rfemur -47.248 4.45651 18.9529
rtibia 97.3877
rfoot -8.91679 -4.42607
rtoes -35.3273
lfemur -48.5844 -7.53678 -22.785
ltibia 85.4485
lfoot -4.46107 29.965
ltoes -15.6934
155
root 2.15325 13.1929 -9.63732 -174.111 -14.1803 177.522
lowerback 11.8522 0.406425 -3.17232
upperback 4.06286 -0.360527 -2.57393
thorax -2.40119 -0.370002 -0.831539
lowerneck -35.4647 -3.43654 -3.75713
upperneck 39.6918 -7.93936 4.80111
head 24.0999 -3.29184 0.701321
rclavicle 1.37161e-014 3.10104e-014
rhumerus -19.387 14.7743 -79.4232
rradius 74.7422
rwrist 12.7839
rhand -9.34353 -5.68792
rfingers 7.12502
rthumb 16.6157 -34.9967
lclavicle 1.37161e-014 3.10104e-014
lhumerus -28.8209 -37.037 94.598
lradius 79.3828
lwrist -23.9916
lhand -19.7442 7.16471
lfingers 7.12502
lthumb 6.58679 37.0423
rfemur -47.1034 3.59993 18.3883
rtibia 98.0047
rfoot -7.34775 -1.93046
rtoes -34.7507
lfemur -46.8781 -7.47697 -23.0286
ltibia 84.7593
lfoot -4.86493 30.4111
ltoes -17.019
156
root 2.11044 13.2277 -9.84968 -174.042 -14.1994 177.281
lowerback 11.5138 0.274115 -3.37867
upperback 3.9896 -0.533897 -2.61259
thorax -2.29004 -0.452632 -0.733214
lowerneck -35.5194 -3.33304 -3.70921
upperneck 39.8011 -7.88698 4.8608
head 24.2205 -3.26644 0.738812
rclavicle -2.84262e-014 -6.36111e-015
rhumerus -20.5358 14.5297 -79.4697
rradius 74.2895
rwrist 13.6619
rhand -9.31165 -5.45315
rfingers 7.12502
rthumb 16.6464 -34.7593
lclavicle -2.84262e-014 -6.36111e-015
lhumerus -28.5393 -36.701 94.9779
lradius 79.5858
lwrist -23.9056
lhand -19.6256 7.11725
lfingers 7.12502
lthumb 6.70123 36.9912
rfemur -47.1349 2.80352 17.7866
rtibia 98.6822
rfoot -5.62947 0.454014
rtoes -33.8656
lfemur -45.4069 -7.58548 -23.1883
ltibia 84.1482
lfoot -5.06137 30.6238
ltoes -18.1735
157
root 2.07226 13.2654 -10.0614 -173.916 -14.2586 177.075
lowerback 11.163 0.12844 -3.58181
upperback 3.89944 -0.720346 -2.63843
thorax -2.18791 -0.540679 -0.623333
lowerneck -35.6188 -3.2575 -3.68303
upperneck 39.8635 -7.87059 4.97062
head 24.3273 -3.2457 0.798221
rclavicle 5.96354e-015 1.90833e-014
rhumerus -21.8169 14.2384 -79.5604
rradius 73.8614
rwrist 14.4439
rhand -9.31035 -5.25644
rfingers 7.12502
rthumb 16.6477 -34.5625
lclavicle 5.96354e-015 1.90833e-014
lhumerus -28.2576 -36.4522 95.3266
lradius 79.8246
lwrist -23.8657
lhand -19.4933 7.02584
lfingers 7.12502
lthumb 6.829 36.8957
rfemur -47.3204 2.09814 17.2144
rtibia 99.4158
rfoot -3.75737 2.62641
rtoes -32.5828
lfemur -44.1509 -7.75629 -23.2729
ltibia 83.6417
lfoot -5.08842 30.6196
ltoes -19.1253
158
root 2.03902 13.3102 -10.2729 -173.773 -14.3357 176.932
lowerback 10.824 -0.0115211 -3.75678
upperback 3.80617 -0.893892 -2.6416
thorax -2.09413 -0.621776 -0.508963
lowerneck -35.7354 -3.22131 -3.68117
upperneck 39.8653 -7.89482 5.11547
head 24.3952 -3.23363 0.870473
rclavicle -8.54774e-015 -7.15625e-015
rhumerus -23.2403 13.8993 -79.6763
rradius 73.4817
rwrist 14.9679
rhand -9.37959 -5.14444
rfingers 7.12502
rthumb 16.581 -34.4561
lclavicle -8.54774e-015 -7.15625e-015
lhumerus -27.9747 -36.3288 95.6603
lradius 80.0939
lwrist -23.8261
lhand -19.3495 6.95389
lfingers 7.12502
lthumb 6.96776 36.8192
rfemur -47.5918 1.49434 16.7372
rtibia 100.132
rfoot -1.68463 4.50618
rtoes -30.7214
lfemur -43.0151 -7.90054 -23.2847
ltibia 83.183
lfoot -5.05242 30.3977
ltoes -19.8368
159
root 2.01103 13.3437 -10.4813 -173.622 -14.3781 176.847
lowerback 10.4899 -0.125463 -3.91119
upperback 3.71997 -1.02921 -2.62398
thorax -1.995 -0.6841 -0.390714
lowerneck -35.8681 -3.21646 -3.69255
upperneck 39.8236 -7.9505 5.27686
head 24.4352 -3.2285 0.945479
rclavicle 8.74653e-015 3.89618e-014
rhumerus -24.78 13.5015 -79.8028
rradius 73.1339
rwrist 15.2408
rhand -9.47975 -5.11431
rfingers 7.12502
rthumb 16.4846 -34.434
lclavicle 8.74653e-015 3.89618e-014
lhumerus -27.6775 -36.3364 95.9786
lradius 80.3776
lwrist -23.7631
lhand -19.2164 6.9129
lfingers 7.12502
lthumb 7.09627 36.7739
rfemur -48.0655 0.986825 16.359
rtibia 100.93
rfoot 0.625436 6.06896
rtoes -27.88
lfemur -42.0606 -7.93825 -23.243
ltibia 82.8377
lfoot -5.01397 30.0064
ltoes -20.3447
160
root 1.98634 13.4073 -10.6926 -173.524 -14.3831 176.813
lowerback 10.2134 -0.207333 -4.04913
upperback 3.65257 -1.1239 -2.58659
thorax -1.90769 -0.72727 -0.266573
lowerneck -35.9924 -3.23722 -3.73423
upperneck 39.767 -8.03135 5.45419
head 24.4657 -3.23423 1.02762
rclavicle 5.1684e-015 -2.38542e-015
rhumerus -26.4395 13.0452 -79.9337
rradius 72.8169
rwrist 15.2559
rhand -9.60041 -5.1867
rfingers 7.12502
rthumb 16.3684 -34.516
lclavicle 5.1684e-015 -2.38542e-015
lhumerus -27.3808 -36.4608 96.2944
lradius 80.6593
lwrist -23.7053
lhand -19.1073 6.91161
lfingers 7.12502
lthumb 7.20154 36.7691
rfemur -48.3747 0.543999 16.0873
rtibia 101.486
rfoot 3.09769 7.24685
rtoes -24.0143
lfemur -40.9162 -7.86641 -23.1571
ltibia 82.2951
lfoot -4.98957 29.5156
ltoes -20.7206
161
root 1.96433 13.48 -10.9047 -173.474 -14.3161 176.813
lowerback 9.96046 -0.254679 -4.17789
upperback 3.61507 -1.17417 -2.53751
thorax -1.80263 -0.750295 -0.141182
lowerneck -36.1348 -3.26227 -3.75625
upperneck 39.6933 -8.09818 5.59171
head 24.4782 -3.23432 1.08817
rclavicle -2.90226e-014 -7.95139e-016
rhumerus -28.1631 12.5434 -80.0668
rradius 72.4927
rwrist 15.0499
rhand -9.70373 -5.33411
rfingers 7.12502
rthumb 16.2689 -34.6716
lclavicle -2.90226e-014 -7.95139e-016
lhumerus -27.0592 -36.6729 96.587
lradius 80.9246
lwrist -23.6206
lhand -19.0105 6.93809
lfingers 7.12502
lthumb 7.295 36.7923
rfemur -48.6508 0.153709 15.8959
rtibia 101.916
rfoot 5.45148 7.91994
rtoes -19.7295
lfemur -39.6541 -7.68004 -23.0444
ltibia 81.6149
lfoot -4.98483 28.9829
ltoes -21.0211
162
root 1.94486 13.5618 -11.1183 -173.504 -14.203 176.855
lowerback 9.77301 -0.278838 -4.27923
upperback 3.60069 -1.19638 -2.47864
thorax -1.71035 -0.760645 -0.0237806
lowerneck -36.2694 -3.29319 -3.78959
upperneck 39.6241 -8.15797 5.71113
head 24.4897 -3.23661 1.14283
rclavicle 3.77691e-014 4.69132e-014
rhumerus -29.9546 11.9852 -80.2081
rradius 72.1687
rwrist 14.7076
rhand -9.76214 -5.53917
rfingers 7.12502
rthumb 16.2127 -34.8812
lclavicle 3.77691e-014 4.69132e-014
lhumerus -26.7309 -36.9707 96.8563
lradius 81.1555
lwrist -23.4829
lhand -18.9526 6.97829
lfingers 7.12502
lthumb 7.35093 36.8306
rfemur -48.8489 -0.223405 15.7981
rtibia 102.187
rfoot 7.4511 8.04693
rtoes -15.5785
lfemur -38.207 -7.41222 -22.8838
ltibia 80.7244
lfoot -4.94964 28.3938
ltoes -21.3095
